<svg width="64" height="64" viewBox="0 0 64 64" fill="none" xmlns="http://www.w3.org/2000/svg">
  <defs>
    <!-- Gradients -->
    <linearGradient id="leafGradient" x1="0%" y1="0%" x2="100%" y2="100%">
      <stop offset="0%" style="stop-color:#2d5a3d;stop-opacity:1" />
      <stop offset="100%" style="stop-color:#1e3d2a;stop-opacity:1" />
    </linearGradient>
    
    <linearGradient id="chainGradient" x1="0%" y1="0%" x2="100%" y2="100%">
      <stop offset="0%" style="stop-color:#2d5a3d;stop-opacity:0.9" />
      <stop offset="100%" style="stop-color:#1e3d2a;stop-opacity:0.7" />
    </linearGradient>
    
    <linearGradient id="qrGradient" x1="0%" y1="0%" x2="100%" y2="100%">
      <stop offset="0%" style="stop-color:#22c55e;stop-opacity:0.8" />
      <stop offset="100%" style="stop-color:#16a34a;stop-opacity:0.6" />
    </linearGradient>
    
    <!-- Filters for glow effects -->
    <filter id="glow" x="-50%" y="-50%" width="200%" height="200%">
      <feGaussianBlur stdDeviation="1" result="coloredBlur"/>
      <feMerge> 
        <feMergeNode in="coloredBlur"/>
        <feMergeNode in="SourceGraphic"/>
      </feMerge>
    </filter>
  </defs>
  
  <!-- Background circle -->
  <circle cx="32" cy="32" r="30" fill="#f8fafc" stroke="#e2e8f0" stroke-width="2"/>
  
  <!-- Main leaf shape -->
  <path d="M20 25 C20 18, 26 15, 32 18 C38 21, 42 28, 40 35 C38 42, 32 45, 26 42 C20 39, 16 32, 20 25 Z" 
        fill="url(#leafGradient)" 
        stroke="#2d5a3d" 
        stroke-width="1.5"/>
  
  <!-- Leaf veins -->
  <path d="M24 25 L28 32 M28 22 L32 28 M32 19 L36 25" 
        stroke="#2d5a3d" 
        stroke-width="1.5" 
        stroke-linecap="round" 
        opacity="0.8"/>
  
  <!-- Chain links -->
  <g transform="translate(20, 45)">
    <ellipse cx="4" cy="4" rx="3" ry="2" fill="none" stroke="url(#chainGradient)" stroke-width="1.5"/>
    <ellipse cx="4" cy="4" rx="2" ry="1.2" fill="none" stroke="url(#chainGradient)" stroke-width="1"/>
    
    <ellipse cx="10" cy="4" rx="3" ry="2" fill="none" stroke="url(#chainGradient)" stroke-width="1.5"/>
    <ellipse cx="10" cy="4" rx="2" ry="1.2" fill="none" stroke="url(#chainGradient)" stroke-width="1"/>
    
    <ellipse cx="16" cy="4" rx="3" ry="2" fill="none" stroke="url(#chainGradient)" stroke-width="1.5"/>
    <ellipse cx="16" cy="4" rx="2" ry="1.2" fill="none" stroke="url(#chainGradient)" stroke-width="1"/>
    
    <!-- Connection lines -->
    <line x1="7" y1="4" x2="7" y2="4" stroke="url(#chainGradient)" stroke-width="1.5"/>
    <line x1="13" y1="4" x2="13" y2="4" stroke="url(#chainGradient)" stroke-width="1.5"/>
  </g>
  
  <!-- QR Code elements -->
  <g transform="translate(20, 20)">
    <rect x="0" y="0" width="2" height="2" fill="url(#qrGradient)"/>
    <rect x="3" y="0" width="1" height="1" fill="url(#qrGradient)"/>
    <rect x="5" y="0" width="2" height="2" fill="url(#qrGradient)"/>
    <rect x="0" y="3" width="1" height="1" fill="url(#qrGradient)"/>
    <rect x="2" y="3" width="1" height="1" fill="url(#qrGradient)"/>
    <rect x="4" y="3" width="1" height="1" fill="url(#qrGradient)"/>
    <rect x="6" y="3" width="1" height="1" fill="url(#qrGradient)"/>
    <rect x="0" y="5" width="2" height="2" fill="url(#qrGradient)"/>
    <rect x="3" y="5" width="1" height="1" fill="url(#qrGradient)"/>
    <rect x="5" y="5" width="2" height="2" fill="url(#qrGradient)"/>
    
    <!-- Corner markers -->
    <rect x="0" y="0" width="2" height="2" fill="none" stroke="url(#qrGradient)" stroke-width="0.5"/>
    <rect x="5" y="0" width="2" height="2" fill="none" stroke="url(#qrGradient)" stroke-width="0.5"/>
    <rect x="0" y="5" width="2" height="2" fill="none" stroke="url(#qrGradient)" stroke-width="0.5"/>
  </g>
  
  <!-- Scan line effect -->
  <line x1="20" y1="25" x2="28" y2="25" stroke="#22c55e" stroke-width="1" opacity="0.7" filter="url(#glow)">
    <animate attributeName="opacity" values="0.3;1;0.3" dur="2s" repeatCount="indefinite"/>
  </line>
</svg>
