<svg width="200" height="60" viewBox="0 0 200 60" fill="none" xmlns="http://www.w3.org/2000/svg">
  <defs>
    <!-- Gradients -->
    <linearGradient id="leafGradient" x1="0%" y1="0%" x2="100%" y2="100%">
      <stop offset="0%" style="stop-color:#2d5a3d;stop-opacity:1" />
      <stop offset="100%" style="stop-color:#1e3d2a;stop-opacity:1" />
    </linearGradient>
    
    <linearGradient id="chainGradient" x1="0%" y1="0%" x2="100%" y2="100%">
      <stop offset="0%" style="stop-color:#2d5a3d;stop-opacity:0.9" />
      <stop offset="100%" style="stop-color:#1e3d2a;stop-opacity:0.7" />
    </linearGradient>
    
    <linearGradient id="qrGradient" x1="0%" y1="0%" x2="100%" y2="100%">
      <stop offset="0%" style="stop-color:#22c55e;stop-opacity:0.8" />
      <stop offset="100%" style="stop-color:#16a34a;stop-opacity:0.6" />
    </linearGradient>
    
    <!-- Filters for glow effects -->
    <filter id="glow" x="-50%" y="-50%" width="200%" height="200%">
      <feGaussianBlur stdDeviation="2" result="coloredBlur"/>
      <feMerge> 
        <feMergeNode in="coloredBlur"/>
        <feMergeNode in="SourceGraphic"/>
      </feMerge>
    </filter>
  </defs>
  
  <!-- Main leaf shape with organic curves -->
  <path d="M15 25 C15 15, 25 10, 35 15 C45 20, 50 30, 45 40 C40 50, 30 55, 20 50 C10 45, 5 35, 15 25 Z" 
        fill="url(#leafGradient)" 
        stroke="#2d5a3d" 
        stroke-width="1"/>
  
  <!-- Leaf veins -->
  <path d="M20 25 L25 35 M25 20 L30 30 M30 15 L35 25" 
        stroke="#2d5a3d" 
        stroke-width="1.5" 
        stroke-linecap="round" 
        opacity="0.7"/>
  
  <!-- Chain links representing blockchain/supply chain -->
  <g transform="translate(50, 20)">
    <!-- First chain link -->
    <ellipse cx="8" cy="8" rx="6" ry="4" fill="none" stroke="url(#chainGradient)" stroke-width="2"/>
    <ellipse cx="8" cy="8" rx="4" ry="2.5" fill="none" stroke="url(#chainGradient)" stroke-width="1.5"/>
    
    <!-- Second chain link -->
    <ellipse cx="20" cy="8" rx="6" ry="4" fill="none" stroke="url(#chainGradient)" stroke-width="2"/>
    <ellipse cx="20" cy="8" rx="4" ry="2.5" fill="none" stroke="url(#chainGradient)" stroke-width="1.5"/>
    
    <!-- Third chain link -->
    <ellipse cx="32" cy="8" rx="6" ry="4" fill="none" stroke="url(#chainGradient)" stroke-width="2"/>
    <ellipse cx="32" cy="8" rx="4" ry="2.5" fill="none" stroke="url(#chainGradient)" stroke-width="1.5"/>
    
    <!-- Connection lines -->
    <line x1="14" y1="8" x2="14" y2="8" stroke="url(#chainGradient)" stroke-width="2"/>
    <line x1="26" y1="8" x2="26" y2="8" stroke="url(#chainGradient)" stroke-width="2"/>
  </g>
  
  <!-- QR Code elements -->
  <g transform="translate(50, 35)">
    <!-- QR code pattern -->
    <rect x="0" y="0" width="3" height="3" fill="url(#qrGradient)"/>
    <rect x="4" y="0" width="2" height="2" fill="url(#qrGradient)"/>
    <rect x="7" y="0" width="3" height="3" fill="url(#qrGradient)"/>
    <rect x="0" y="4" width="2" height="2" fill="url(#qrGradient)"/>
    <rect x="3" y="4" width="1" height="1" fill="url(#qrGradient)"/>
    <rect x="5" y="4" width="2" height="2" fill="url(#qrGradient)"/>
    <rect x="8" y="4" width="2" height="2" fill="url(#qrGradient)"/>
    <rect x="0" y="7" width="3" height="3" fill="url(#qrGradient)"/>
    <rect x="4" y="7" width="2" height="2" fill="url(#qrGradient)"/>
    <rect x="7" y="7" width="3" height="3" fill="url(#qrGradient)"/>
    
    <!-- Corner markers -->
    <rect x="0" y="0" width="3" height="3" fill="none" stroke="url(#qrGradient)" stroke-width="0.5"/>
    <rect x="7" y="0" width="3" height="3" fill="none" stroke="url(#qrGradient)" stroke-width="0.5"/>
    <rect x="0" y="7" width="3" height="3" fill="none" stroke="url(#qrGradient)" stroke-width="0.5"/>
  </g>
  
  <!-- Scan line effect -->
  <line x1="50" y1="30" x2="90" y2="30" stroke="#22c55e" stroke-width="1" opacity="0.6">
    <animate attributeName="opacity" values="0.2;1;0.2" dur="2s" repeatCount="indefinite"/>
  </line>
  
  <!-- Company name -->
  <text x="100" y="25" font-family="Inter, system-ui, sans-serif" font-size="18" font-weight="700" fill="#1f2937">
    GroChain
  </text>
  
  <!-- Tagline -->
  <text x="100" y="40" font-family="Inter, system-ui, sans-serif" font-size="10" font-weight="400" fill="#6b7280">
    Digital Agriculture Platform
  </text>
  
  <!-- Subtle tech pattern background -->
  <g opacity="0.1">
    <circle cx="170" cy="15" r="1" fill="#3b82f6"/>
    <circle cx="175" cy="20" r="1" fill="#3b82f6"/>
    <circle cx="180" cy="15" r="1" fill="#3b82f6"/>
    <circle cx="185" cy="20" r="1" fill="#3b82f6"/>
    <circle cx="190" cy="15" r="1" fill="#3b82f6"/>
  </g>
</svg>